<svg width="26" height="26" viewBox="0 0 26 26" fill="none" xmlns="http://www.w3.org/2000/svg">
<path d="M24.0874 16.075C22.1241 16.6256 20.0496 16.6436 18.077 16.1273C16.1043 15.611 14.3047 14.5789 12.8629 13.137C11.421 11.6952 10.389 9.89557 9.87263 7.92296C9.35631 5.95034 9.37435 3.87584 9.92491 1.91251C7.98924 2.45127 6.2285 3.48778 4.81809 4.9188C3.40767 6.34981 2.39679 8.12539 1.88614 10.0687C1.3755 12.0119 1.3829 14.0551 1.90762 15.9946C2.43234 17.9341 3.45606 19.7023 4.87682 21.1231C6.29757 22.5438 8.06577 23.5676 10.0053 24.0923C11.9448 24.617 13.988 24.6244 15.9312 24.1138C17.8745 23.6031 19.6501 22.5922 21.0811 21.1818C22.5121 19.7714 23.5486 18.0107 24.0874 16.075V16.075Z" stroke="white" stroke-width="2" stroke-linecap="round" stroke-linejoin="round"/>
</svg>
